<?xml version="1.0" standalone="no"?>
<!DOCTYPE svg PUBLIC "-//W3C//DTD SVG 20010904//EN"
 "http://www.w3.org/TR/2001/REC-SVG-20010904/DTD/svg10.dtd">
<svg version="1.0" xmlns="http://www.w3.org/2000/svg"
 width="1280.000000pt" height="1280.000000pt" viewBox="0 0 1280.000000 1280.000000"
 preserveAspectRatio="xMidYMid meet">

<g transform="translate(0.000000,1280.000000) scale(0.100000,-0.100000)"
fill="#000000" stroke="none">
<path d="M4380 8134 l0 -447 -62 7 c-35 3 -102 9 -151 12 l-87 7 -11 40 c-31
115 -173 149 -256 61 -106 -113 14 -293 163 -244 l37 13 51 -54 c28 -30 95
-102 148 -161 l97 -107 -20 -37 c-23 -46 -25 -108 -4 -148 18 -34 34 -11 -155
-225 -80 -90 -156 -177 -170 -193 l-25 -29 -43 17 c-36 15 -48 15 -84 5 -23
-7 -56 -27 -74 -45 -112 -112 16 -300 164 -240 39 15 85 57 94 85 3 10 159 -2
346 -27 l42 -6 0 -594 0 -594 384 0 384 0 7 -30 c13 -60 60 -100 130 -109 36
-5 41 -10 52 -44 12 -37 12 -39 -22 -68 -68 -60 -71 -155 -7 -220 51 -51 105
-59 169 -27 59 29 82 61 91 122 l7 49 130 50 c577 221 563 216 582 195 41 -45
126 -63 176 -37 38 20 76 61 82 90 l7 29 1004 0 1004 0 0 614 c0 338 4 617 8
620 5 3 56 -54 114 -126 l106 -131 -19 -31 c-41 -67 -14 -172 52 -208 104 -56
229 16 229 133 0 103 -106 176 -203 140 -22 -9 -31 -1 -119 107 -52 64 -100
126 -107 137 -12 18 2 47 135 269 l149 248 60 2 c76 1 116 28 141 91 51 134
-81 251 -212 189 -34 -16 -84 -85 -84 -116 0 -16 -9 -17 -182 -34 l-68 -7 0
727 0 726 -2090 0 -2090 0 0 -446z m326 261 c34 -52 -15 -112 -71 -87 -54 25
-35 112 25 112 20 0 35 -8 46 -25z m229 19 c27 -11 38 -53 21 -80 -34 -50
-106 -33 -106 26 0 47 38 72 85 54z m2675 -14 c11 -11 20 -25 20 -31 0 -15
-21 -53 -34 -61 -35 -24 -86 8 -86 53 0 55 60 79 100 39z m242 3 c10 -9 18
-27 18 -40 0 -28 -33 -63 -60 -63 -11 0 -29 9 -40 20 -55 55 24 135 82 83z
m239 7 c30 -17 26 -75 -7 -97 -24 -15 -29 -15 -53 -2 -18 10 -27 24 -29 46 -5
52 40 79 89 53z m253 -6 c24 -23 20 -70 -6 -88 -32 -23 -54 -20 -77 10 -26 33
-26 49 -1 74 24 24 63 26 84 4z m176 -763 l0 -518 -72 -7 c-40 -4 -94 -9 -120
-13 -40 -5 -48 -3 -48 10 0 29 -60 86 -101 97 -111 30 -216 -63 -195 -174 15
-79 110 -137 189 -115 22 6 43 7 47 2 4 -4 73 -92 154 -194 l146 -187 0 -631
0 -631 -67 -1 c-38 -1 -479 -2 -981 -3 l-913 -1 -25 42 c-38 66 -96 87 -184
70 -34 -7 -37 -5 -95 67 -33 41 -204 244 -380 451 -176 207 -322 380 -323 386
-3 6 67 8 189 7 l192 -3 51 -120 52 -120 147 -3 c81 -1 147 1 147 6 0 4 -43
103 -95 220 -89 199 -102 232 -90 232 2 0 79 16 171 35 91 19 172 35 180 35
12 0 14 -44 14 -265 l0 -265 130 0 130 0 2 227 3 227 30 8 c82 21 123 135 73
208 -13 19 -42 43 -66 55 l-42 20 0 72 c0 40 2 73 4 73 2 0 21 -30 41 -67 20
-38 103 -184 183 -325 l146 -258 70 0 71 0 175 310 c96 171 180 318 187 328
10 13 12 -76 13 -431 l0 -448 133 3 132 3 3 639 c1 352 -2 644 -6 648 -5 5
-77 6 -159 2 l-150 -7 -110 -201 c-61 -111 -149 -269 -195 -353 -45 -84 -85
-152 -88 -152 -5 0 -52 83 -309 546 l-96 173 -152 0 -153 0 -2 -362 -3 -363
-180 -37 c-99 -20 -187 -37 -196 -38 -11 0 -40 55 -97 183 -164 370 -240 543
-255 580 l-16 37 -138 0 -138 0 -64 -147 c-192 -447 -255 -583 -269 -578 -7 2
-145 106 -307 230 l-293 225 10 36 c19 70 -42 166 -112 176 l-25 3 -3 174 -2
174 82 -7 c46 -3 184 -15 308 -26 123 -11 230 -20 237 -20 7 0 13 -8 13 -17 0
-29 37 -82 72 -104 74 -46 194 -2 219 80 31 104 -38 191 -152 191 -46 0 -55
-4 -88 -38 -20 -20 -41 -45 -46 -55 -11 -20 29 -22 -510 26 l-130 12 -3 225
c-1 123 0 230 2 237 4 10 411 13 2051 13 l2045 0 0 -519z m-4267 18 l127 -12
0 -177 c0 -145 -3 -179 -14 -183 -10 -4 -56 39 -132 121 -65 70 -133 144 -152
164 -33 35 -34 39 -22 67 15 36 12 36 193 20z m4567 -558 c0 -4 11 -24 24 -43
l23 -35 -133 -224 c-73 -123 -138 -232 -144 -243 -25 -41 -30 7 -28 265 l3
264 105 11 c142 15 150 15 150 5z m-300 -253 c0 -197 -2 -230 -14 -218 -18 20
-240 301 -249 317 -4 6 2 27 13 45 11 18 20 40 20 49 0 13 18 18 93 26 50 6
102 11 115 11 l22 2 0 -232z m-3684 -38 c159 -122 293 -226 298 -230 5 -5 -8
-48 -30 -100 -36 -85 -40 -90 -64 -85 -14 2 -144 16 -290 30 -146 14 -280 27
-297 30 l-33 6 0 268 0 269 33 6 c19 3 42 13 53 21 10 8 24 13 30 11 6 -2 141
-104 300 -226z m838 -288 c-131 -2 -170 1 -194 13 -16 8 -36 15 -45 15 -19 0
-19 13 0 49 13 26 154 360 177 421 8 22 23 -7 118 -235 l108 -260 -164 -3z
m-1313 488 c18 -10 19 -24 19 -281 l0 -271 -37 6 c-32 5 -322 36 -337 36 -2 0
-8 14 -11 32 -4 18 -12 40 -18 49 -8 13 -3 25 24 57 64 76 334 381 337 382 2
0 12 -5 23 -10z m319 -621 c113 -11 237 -24 277 -28 40 -4 75 -9 78 -13 3 -3
-21 -67 -55 -142 -33 -75 -60 -141 -60 -147 0 -6 53 -9 143 -7 l142 3 45 105
c60 138 57 134 83 117 36 -23 85 -28 129 -12 23 8 43 13 43 12 4 -7 342 -408
617 -729 l167 -196 -20 -38 c-11 -22 -24 -39 -29 -38 -6 1 -184 2 -398 3
l-387 1 -19 35 c-56 104 -213 101 -270 -5 l-19 -35 -191 2 c-105 1 -269 2
-363 2 l-173 1 0 570 0 570 28 -5 c15 -3 119 -14 232 -26z m1570 -1173 c0 -8
-22 -22 -52 -32 -29 -9 -186 -68 -348 -131 l-295 -114 -20 25 c-23 28 -82 56
-119 56 -19 0 -27 8 -36 36 -11 34 -10 37 24 70 20 19 39 47 42 62 4 15 9 30
11 35 2 4 182 7 399 7 334 0 394 -2 394 -14z"/>
<path d="M7874 5975 c-96 -42 -116 -176 -38 -245 83 -72 202 -39 239 65 40
119 -85 231 -201 180z"/>
<path d="M4391 4438 c-5 -13 -27 -66 -50 -118 -22 -52 -41 -98 -41 -102 0 -5
9 -8 21 -8 13 0 23 10 30 30 10 29 13 30 69 30 56 0 59 -1 69 -30 7 -20 17
-30 30 -30 12 0 21 4 21 8 0 4 -22 59 -48 122 -39 91 -53 116 -70 118 -15 2
-25 -4 -31 -20z m52 -85 c14 -36 14 -38 -4 -41 -10 -2 -28 -2 -38 0 -18 3 -18
5 -4 41 8 20 19 37 23 37 4 0 15 -17 23 -37z"/>
<path d="M4660 4335 l0 -125 80 0 c73 0 80 2 80 20 0 18 -7 20 -60 20 l-60 0
0 105 c0 98 -1 105 -20 105 -19 0 -20 -7 -20 -125z"/>
<path d="M5553 4448 c-12 -16 -103 -218 -103 -230 0 -4 9 -8 21 -8 14 0 24 10
32 30 11 28 14 30 68 30 53 0 57 -2 69 -30 13 -30 50 -43 50 -17 0 27 -98 232
-112 235 -8 2 -19 -3 -25 -10z m53 -135 c-2 -2 -20 -3 -39 -1 l-34 3 20 45 19
45 19 -44 c11 -24 18 -46 15 -48z"/>
<path d="M5980 4379 c0 -43 -3 -79 -7 -79 -5 1 -33 34 -63 75 -39 53 -61 74
-77 75 -23 0 -23 -2 -23 -121 0 -119 0 -120 23 -117 21 3 22 7 20 82 l-3 79
21 -19 c12 -10 41 -47 66 -81 28 -40 52 -63 64 -63 18 0 19 8 19 119 0 110 -1
119 -20 124 -19 5 -20 0 -20 -74z"/>
<path d="M6520 4450 c0 -2 -2 -57 -4 -122 l-4 -118 24 0 c22 0 24 4 24 45 0
39 3 45 21 45 19 0 34 -13 77 -68 11 -16 26 -23 40 -20 23 3 23 3 -9 46 l-31
42 25 20 c13 11 27 28 29 38 8 30 -18 81 -44 86 -32 7 -148 12 -148 6z m144
-62 c15 -25 -11 -48 -63 -55 l-41 -6 0 42 0 42 46 -3 c31 -2 51 -9 58 -20z"/>
<path d="M6910 4447 c-86 -30 -105 -141 -36 -204 27 -25 45 -33 72 -33 140 0
187 172 64 235 -34 18 -53 18 -100 2z m104 -56 c28 -29 24 -90 -9 -118 -32
-28 -64 -29 -97 -3 -32 24 -39 59 -22 99 22 52 86 63 128 22z"/>
<path d="M7433 4453 c-10 -3 -13 -38 -13 -124 0 -112 1 -119 20 -119 18 0 20
7 20 83 l1 82 34 -67 c22 -43 40 -66 48 -62 7 2 27 33 44 67 l32 62 0 -82 c1
-76 3 -83 21 -83 19 0 20 7 20 120 0 120 0 120 -24 120 -19 0 -30 -12 -57 -65
-19 -36 -36 -65 -39 -65 -3 0 -21 30 -40 67 -35 67 -44 76 -67 66z"/>
<path d="M7828 4453 c-16 -4 -18 -19 -18 -124 0 -112 1 -119 20 -119 19 0 20
7 20 125 0 69 -1 124 -2 124 -2 -1 -11 -3 -20 -6z"/>
<path d="M8408 4448 c-13 -11 -108 -213 -108 -231 0 -4 9 -7 20 -7 12 0 26 12
35 30 14 28 20 30 69 30 51 0 55 -2 65 -30 7 -23 16 -30 36 -30 l25 0 -16 38
c-9 20 -31 71 -48 112 -35 84 -44 100 -55 100 -4 0 -14 -6 -23 -12z m37 -94
c18 -44 13 -54 -26 -54 -32 0 -35 8 -17 57 15 42 24 42 43 -3z"/>
<path d="M4940 4330 l0 -120 90 0 c83 0 90 1 90 20 0 18 -7 20 -70 20 l-70 0
0 35 0 35 60 0 c54 0 60 2 60 21 0 19 -5 20 -57 18 -56 -3 -58 -2 -61 24 -3
26 -2 26 65 29 55 2 68 6 71 21 3 15 -6 17 -87 17 l-91 0 0 -120z"/>
<path d="M5300 4361 c0 -69 -4 -92 -16 -102 -13 -10 -19 -10 -36 0 -17 11 -23
10 -37 -4 -15 -15 -15 -17 3 -31 28 -20 69 -17 100 7 25 20 26 24 26 120 0 92
-1 99 -20 99 -18 0 -20 -7 -20 -89z"/>
<path d="M6166 4373 c-3 -42 -6 -96 -6 -120 l0 -43 60 0 c77 0 124 20 150 62
24 39 25 78 5 118 -22 42 -63 60 -138 60 l-64 0 -7 -77z m154 17 c25 -25 26
-80 2 -110 -12 -15 -33 -24 -65 -27 l-47 -6 0 82 0 81 45 0 c32 0 51 -6 65
-20z"/>
<path d="M7990 4330 l0 -120 25 0 c23 0 25 4 25 45 0 38 3 45 19 45 23 0 43
-18 68 -60 11 -19 25 -30 40 -30 30 0 29 8 -6 55 l-29 39 29 18 c23 14 29 25
29 53 0 59 -26 75 -120 75 l-80 0 0 -120z m148 65 c11 -10 11 -17 3 -34 -9
-17 -21 -21 -56 -21 -45 0 -45 0 -45 34 0 19 6 37 13 39 18 8 70 -3 85 -18z"/>
</g>
</svg>
